<svg xmlns="http://www.w3.org/2000/svg" xmlns:xlink="http://www.w3.org/1999/xlink" width="400" zoomAndPan="magnify" viewBox="0 0 300 74.999997" height="100" preserveAspectRatio="xMidYMid meet" version="1.0"><defs><g/><clipPath id="eeed1eed7d"><path d="M 279.746094 21.863281 L 299.996094 21.863281 L 299.996094 40.613281 L 279.746094 40.613281 Z M 279.746094 21.863281 " clip-rule="nonzero"/></clipPath><clipPath id="b632501705"><path d="M 252 29 L 282 29 L 282 59 L 252 59 Z M 252 29 " clip-rule="nonzero"/></clipPath><clipPath id="415da381c5"><path d="M 283.722656 54.984375 L 255.300781 61.894531 L 248.742188 34.929688 L 277.164062 28.019531 Z M 283.722656 54.984375 " clip-rule="nonzero"/></clipPath><clipPath id="5a5b533c57"><path d="M 283.722656 54.984375 L 255.300781 61.894531 L 248.742188 34.929688 L 277.164062 28.019531 Z M 283.722656 54.984375 " clip-rule="nonzero"/></clipPath><clipPath id="4554e5349e"><path d="M 257 9 L 273 9 L 273 25 L 257 25 Z M 257 9 " clip-rule="nonzero"/></clipPath><clipPath id="60affef7f3"><path d="M 276.226562 18.53125 L 264.808594 28.257812 L 255.566406 17.410156 L 266.984375 7.683594 Z M 276.226562 18.53125 " clip-rule="nonzero"/></clipPath><clipPath id="aa1d268ebf"><path d="M 276.226562 18.53125 L 264.808594 28.257812 L 255.566406 17.410156 L 266.984375 7.683594 Z M 276.226562 18.53125 " clip-rule="nonzero"/></clipPath></defs><g clip-path="url(#eeed1eed7d)"><path fill="#ff7f17" d="M 289.871094 40.613281 L 287.265625 34.90625 C 287.164062 34.683594 287.007812 34.496094 286.808594 34.355469 C 286.609375 34.214844 286.375 34.125 286.128906 34.101562 L 279.75 33.449219 L 284.519531 29.273438 C 284.703125 29.109375 284.839844 28.90625 284.914062 28.679688 C 284.992188 28.449219 285.003906 28.207031 284.953125 27.972656 L 283.617188 21.863281 L 289.171875 24.988281 C 289.382812 25.105469 289.625 25.171875 289.871094 25.171875 C 290.121094 25.171875 290.359375 25.105469 290.574219 24.988281 L 296.128906 21.863281 L 294.792969 27.972656 C 294.742188 28.207031 294.753906 28.449219 294.832031 28.679688 C 294.90625 28.90625 295.042969 29.109375 295.226562 29.273438 L 299.992188 33.449219 L 293.613281 34.101562 C 293.371094 34.125 293.136719 34.214844 292.9375 34.355469 C 292.738281 34.496094 292.578125 34.683594 292.480469 34.90625 Z M 289.871094 40.613281 " fill-opacity="1" fill-rule="evenodd"/></g><g clip-path="url(#b632501705)"><g clip-path="url(#415da381c5)"><g clip-path="url(#5a5b533c57)"><path fill="#ffb001" d="M 269.511719 58.441406 L 263.855469 51.121094 C 263.636719 50.839844 263.351562 50.621094 263.019531 50.484375 C 262.691406 50.351562 262.332031 50.304688 261.980469 50.351562 L 252.796875 51.59375 L 258.03125 43.957031 C 258.230469 43.664062 258.351562 43.324219 258.378906 42.96875 C 258.40625 42.613281 258.339844 42.261719 258.183594 41.941406 L 254.171875 33.609375 L 263.0625 36.207031 C 263.402344 36.308594 263.765625 36.316406 264.109375 36.234375 C 264.457031 36.148438 264.773438 35.976562 265.03125 35.730469 L 271.734375 29.339844 L 271.996094 38.582031 C 272.003906 38.9375 272.109375 39.285156 272.296875 39.585938 C 272.484375 39.886719 272.746094 40.136719 273.058594 40.304688 L 281.214844 44.6875 L 272.484375 47.796875 C 272.152344 47.917969 271.851562 48.125 271.621094 48.394531 C 271.390625 48.664062 271.238281 48.992188 271.171875 49.339844 Z M 269.511719 58.441406 " fill-opacity="1" fill-rule="evenodd"/></g></g></g><g clip-path="url(#4554e5349e)"><g clip-path="url(#60affef7f3)"><g clip-path="url(#aa1d268ebf)"><path fill="#ffb001" d="M 270.515625 23.394531 L 266.230469 21.34375 C 266.066406 21.265625 265.886719 21.230469 265.703125 21.246094 C 265.519531 21.261719 265.347656 21.324219 265.195312 21.425781 L 261.277344 24.113281 L 261.90625 19.40625 C 261.933594 19.226562 261.90625 19.042969 261.839844 18.875 C 261.769531 18.707031 261.65625 18.558594 261.511719 18.445312 L 257.75 15.554688 L 262.421875 14.695312 C 262.601562 14.660156 262.769531 14.582031 262.90625 14.464844 C 263.046875 14.34375 263.152344 14.191406 263.210938 14.019531 L 264.804688 9.542969 L 267.0625 13.71875 C 267.148438 13.878906 267.277344 14.015625 267.429688 14.109375 C 267.585938 14.203125 267.765625 14.257812 267.945312 14.261719 L 272.695312 14.386719 L 269.417969 17.828125 C 269.292969 17.960938 269.203125 18.125 269.160156 18.300781 C 269.117188 18.480469 269.121094 18.664062 269.171875 18.839844 Z M 270.515625 23.394531 " fill-opacity="1" fill-rule="evenodd"/></g></g></g><g fill="#ffffff" fill-opacity="1"><g transform="translate(6.432603, 54.088086)"><g><path d="M 27.109375 0 L 27.109375 -7.703125 L 12.71875 -7.703125 L 12.71875 -15.40625 L 25.625 -15.40625 L 25.625 -23 L 12.71875 -23 L 12.71875 -30.21875 L 26.8125 -30.21875 L 26.8125 -37.921875 L 3.875 -37.921875 L 3.875 0 Z M 27.109375 0 "/></g></g></g><g fill="#ffffff" fill-opacity="1"><g transform="translate(35.333179, 54.088086)"><g><path d="M 22.453125 -6.875 L 26.75 -29.265625 L 18.515625 -29.265625 L 14.8125 -7.109375 C 14.613281 -6.585938 14.332031 -6.304688 13.96875 -6.265625 L 12.71875 -6.265625 L 8.78125 -29.265625 L 0.296875 -29.265625 L 5.734375 0 L 14.6875 0.359375 C 17.71875 0.472656 19.769531 -0.28125 20.84375 -1.90625 C 21.476562 -2.988281 22.015625 -4.644531 22.453125 -6.875 Z M 22.453125 -6.875 "/></g></g></g><g fill="#ffffff" fill-opacity="1"><g transform="translate(62.084125, 54.088086)"><g><path d="M 24.359375 0.359375 L 24.359375 -6.8125 L 11.703125 -6.8125 C 11.179688 -6.882812 10.90625 -7.160156 10.875 -7.640625 L 10.875 -10.875 L 25.265625 -10.875 L 25.265625 -21.5 C 25.265625 -25.28125 24.207031 -27.726562 22.09375 -28.84375 C 20.738281 -29.519531 18.804688 -29.859375 16.296875 -29.859375 L 11.34375 -29.859375 C 7.28125 -29.859375 4.65625 -28.863281 3.46875 -26.875 C 2.75 -25.601562 2.390625 -23.8125 2.390625 -21.5 L 2.390625 -8.59375 C 2.390625 -4.175781 4.039062 -1.429688 7.34375 -0.359375 C 8.78125 0.117188 10.515625 0.359375 12.546875 0.359375 Z M 10.875 -22.15625 C 10.945312 -22.675781 11.222656 -22.957031 11.703125 -23 L 16.0625 -23 C 16.582031 -22.914062 16.863281 -22.632812 16.90625 -22.15625 L 16.90625 -16.84375 L 10.875 -16.84375 Z M 10.875 -22.15625 "/></g></g></g><g fill="#ffffff" fill-opacity="1"><g transform="translate(89.432191, 54.088086)"><g><path d="M 17.265625 -29.859375 C 13.753906 -29.773438 11.757812 -28.023438 11.28125 -24.609375 L 10.6875 -29.265625 L 2.984375 -29.265625 L 3.109375 0 L 11.59375 0 L 11.46875 -22.15625 C 11.550781 -22.675781 11.828125 -22.957031 12.296875 -23 L 17.265625 -23 C 17.773438 -22.914062 18.050781 -22.632812 18.09375 -22.15625 L 18.09375 0 L 26.578125 0 L 26.578125 -22.390625 C 26.578125 -26.210938 25.203125 -28.546875 22.453125 -29.390625 C 21.421875 -29.703125 20.207031 -29.859375 18.8125 -29.859375 Z M 17.265625 -29.859375 "/></g></g></g><g fill="#ffffff" fill-opacity="1"><g transform="translate(118.392478, 54.088086)"><g><path d="M 19.34375 -29.265625 L 12.78125 -29.265625 L 12.78125 -36.734375 L 4.296875 -36.734375 L 4.296875 -29.265625 L 1.3125 -29.265625 L 1.3125 -22.6875 L 4.296875 -22.6875 L 4.296875 -8.953125 C 4.296875 -4.535156 5.945312 -1.789062 9.25 -0.71875 C 10.6875 -0.238281 12.421875 0 14.453125 0 L 19.34375 0 L 19.34375 -7.171875 L 13.609375 -7.171875 C 13.097656 -7.242188 12.820312 -7.519531 12.78125 -8 L 12.78125 -22.6875 L 19.34375 -22.6875 Z M 19.34375 -29.265625 "/></g></g></g><g fill="#ffffff" fill-opacity="1"><g transform="translate(138.276552, 54.088086)"><g><path d="M 21.5625 0.59375 C 28.6875 0.519531 32.269531 -2.660156 32.3125 -8.953125 L 32.3125 -37.921875 L 23.359375 -37.921875 L 23.359375 -8.1875 C 23.273438 -7.664062 22.992188 -7.382812 22.515625 -7.34375 L 13.078125 -7.34375 C 12.554688 -7.425781 12.28125 -7.707031 12.25 -8.1875 L 12.25 -37.921875 L 3.28125 -37.921875 L 3.28125 -8.953125 C 3.363281 -2.628906 6.945312 0.550781 14.03125 0.59375 Z M 21.5625 0.59375 "/></g></g></g><g fill="#ffffff" fill-opacity="1"><g transform="translate(173.864865, 54.088086)"><g><path d="M 11.40625 -23.046875 C 10.882812 -23.128906 10.609375 -23.410156 10.578125 -23.890625 L 10.578125 -29.390625 C 10.648438 -29.898438 10.925781 -30.175781 11.40625 -30.21875 L 26.34375 -30.21875 L 26.34375 -37.921875 L 12.65625 -38.21875 C 7.363281 -38.34375 3.941406 -36.515625 2.390625 -32.734375 C 1.867188 -31.410156 1.609375 -29.957031 1.609375 -28.375 L 1.609375 -25.078125 C 1.609375 -20.347656 3.617188 -17.265625 7.640625 -15.828125 C 9.117188 -15.304688 10.789062 -15.046875 12.65625 -15.046875 L 17.984375 -15.046875 C 18.492188 -14.972656 18.769531 -14.695312 18.8125 -14.21875 L 18.8125 -8.546875 C 18.726562 -8.023438 18.453125 -7.742188 17.984375 -7.703125 L 2.5625 -7.703125 L 2.5625 0 L 16.71875 0.296875 C 22.019531 0.421875 25.445312 -1.410156 27 -5.203125 C 27.507812 -6.515625 27.765625 -7.96875 27.765625 -9.5625 L 27.765625 -13.015625 C 27.765625 -17.753906 25.753906 -20.84375 21.734375 -22.28125 C 20.265625 -22.789062 18.59375 -23.046875 16.71875 -23.046875 Z M 11.40625 -23.046875 "/></g></g></g><g fill="#ffffff" fill-opacity="1"><g transform="translate(203.123712, 54.088086)"><g><path d="M 13.015625 0 L 13.015625 -12.484375 L 20.125 -12.484375 C 24.707031 -12.484375 27.929688 -14.09375 29.796875 -17.3125 C 30.710938 -18.90625 31.171875 -20.679688 31.171875 -22.640625 L 31.171875 -28.375 C 31.171875 -33.070312 29.179688 -36.113281 25.203125 -37.5 C 23.691406 -38.019531 22 -38.257812 20.125 -38.21875 L 4.1875 -37.921875 L 4.1875 0 Z M 21.375 -30.515625 C 21.894531 -30.441406 22.175781 -30.164062 22.21875 -29.6875 L 22.21875 -21.015625 C 22.132812 -20.503906 21.851562 -20.226562 21.375 -20.1875 L 13.015625 -20.1875 L 13.015625 -30.515625 Z M 21.375 -30.515625 "/></g></g></g></svg>